<svg xmlns="http://www.w3.org/2000/svg" width="250" height="245" shape-rendering="geometricPrecision" image-rendering="optimizeQuality" fill-rule="evenodd" viewBox="0 0 19387 19018" xmlns:v="https://vecta.io/nano"><path fill="#63e296" d="M9693 0h0c5353 0 9694 4258 9694 9509h0c0 5250-4341 9509-9694 9509h0C4341 19018 0 14759 0 9509h0C0 4258 4341 0 9693 0h0z"/><path fill="#ff85d2" d="M5629 11508l8220 1819c1980 439 3076 1210 3621 1858-1767 2326-4593 3833-7777 3833h0c-4018 0-7467-2401-8936-5820 2526-2228 4148-1847 4872-1690z"/><path d="M11777 16360c-26-30-41-64-46-100-12 37-16 72-10 99 6 23 31 43 85 49l1 1 10 1c-12-18-27-35-40-50zm455 19c15 50 22 100 16 150 2-6 4-13 5-19 6-39-3-84-21-131zm-751 293c-70-59-113-137-135-224-24-100-16-208 18-309 32-95 87-187 159-261 83-87 187-150 303-172-182-44-362 80-479 254-58 87-99 185-117 282-16 90-12 177 17 248 34 81 108 148 234 182zm462-973c59 3 119 18 181 46l2 1c191 88 375 279 460 483 46 110 66 226 48 339-20 122-81 235-196 325-150 117-396 191-771 183-432-9-675-194-778-445-58-141-68-299-40-454 27-148 89-296 175-425 198-297 531-502 895-414 103 25 166 128 141 229-16 62-61 110-117 132zm-9236-2591c-26-29-41-64-46-99-12 37-16 72-9 99 5 22 31 42 84 48l2 1 10 1c-13-17-27-35-41-50zm454 15l1 3v-1l-1-2zm1 3c16 51 23 102 16 153 3-7 4-14 6-21 6-39-3-85-22-132zm-749 295c-71-59-114-137-136-224-25-100-16-208 18-309 31-95 87-187 158-261 84-87 189-151 305-173h-1c-182-44-363 80-479 254-59 88-101 187-118 283-16 89-12 175 17 247 34 82 108 149 236 183zm458-974c60 4 121 19 184 47v1c192 88 377 279 462 483 46 109 65 226 48 338-20 122-81 236-196 326-150 116-396 191-771 183-433-9-676-195-779-446-58-140-67-298-39-454 27-149 89-296 174-425 199-297 532-502 895-414 104 25 167 128 141 229-15 63-61 111-119 132z" fill="#fff" fill-rule="nonzero"/><path d="M12608 7208c31 1825-1026 3781-2530 3766-1001-11-2015-1246-2651-2408-409-570-632-1027-625-1522 15-1493 1245-2690 2747-2676 1502 12 3032 1271 3059 2840z"/><path fill="#6983ff" d="M7293 8348l-294-520c370-109 1204-1473 1271-2024 176 577 1169 1765 3019 2444l-374 571c536-427 1234-133 1249 395-41 908-788 821-1118 597l-68 2801 1220 275c-117 304-1360 1497-2967 1174-1892-435-2396-1875-2519-2410l1614 325-6-906c-339-4-1053 31-1345-560-302-606 25-1654 318-2162z"/><path d="M8329 11728l1245-765s-388 61-637 83c-241 22-616 28-616 28l8 654z"/><g fill-rule="nonzero"><path d="M8085 7652c32-153 184-253 341-222 156 31 258 180 226 334-68 330 184 523 185 523l187 153-121 207-225 383h51c160 1 288 130 287 286-1 157-132 283-291 282l-547-6-495-5 247-420 366-623c-137-179-294-485-211-892zm1261 174c-158 25-306-81-331-236-25-154 83-300 240-324 118-19 236-26 347-24 119 3 230 18 323 43 153 42 243 199 200 350s-203 239-357 197c-49-13-110-21-179-23h-1c-75-1-158 4-242 17z"/><path d="M7519 7874c-158 26-307-80-332-234-26-155 81-301 239-326a1947.8 1947.8 0 0 1 345-25c120 3 232 18 325 43 154 43 244 200 201 351s-203 239-357 196c-49-13-111-21-180-22-75-2-158 4-241 17zm1381 2495c-142 71-317 17-390-123-74-139-18-311 124-382 71-36 140-80 199-126 57-44 103-87 133-125 98-124 279-147 406-51 126 96 150 274 52 398-61 77-141 155-232 225-86 66-186 129-292 184zm2253-768c-125 98-307 79-407-44a279.8 279.8 0 0 1 44-399l665-528c125-98 307-79 407 44a279.8 279.8 0 0 1-44 399l-665 528z"/><path d="M11245 9217c-116-108-120-288-10-401 110-114 293-118 409-10l331 308c115 108 120 288 10 401-110 114-294 118-410 10l-330-308z"/></g><path d="M9600 8465c66 2 121-50 122-115s-52-118-118-119-120 50-121 115 51 118 117 119zm-1827 45c66 1 120-51 121-115 1-65-51-119-117-120-67-1-121 51-122 116s52 118 118 119zm5805-2700c794-540 1062-1514 598-2174s-1484-758-2278-217c-794 540-1062 1514-598 2174s1484 758 2278 217z"/></svg>