<svg xmlns="http://www.w3.org/2000/svg" width="250" height="245" shape-rendering="geometricPrecision" image-rendering="optimizeQuality" fill-rule="evenodd" viewBox="0 0 19439 19069" xmlns:v="https://vecta.io/nano"><path fill="#8dbbff" d="M9719 0h0c5367 0 9720 4270 9720 9535h0c0 5265-4353 9534-9720 9534h0C4352 19069 0 14800 0 9535h0C0 4270 4352 0 9719 0h0z"/><path fill="#ff1ead" d="M13530 12680c-438 376-973 615-1551 740v18l292 1845c61 364 42 740-73 1098-231 710-797 1284-1515 1511-682 214-1443 101-2057-275-615-370-1016-1003-1126-1701l-274-1726-292-1838c316-299 523-705 554-1164 12-227-12-454-79-657l36-4423c962-454 1978-902 3055-1343 748-305 1479-591 2191-854 2367 2173 2945 6948 839 8769z"/><path d="M13444 5940c535-177 918-470 854-654-63-185-548-191-1083-13-535 177-917 470-854 654s548 190 1083 13zM9457 7378c524-204 891-516 818-697s-558-162-1083 42-891 516-818 697 558 162 1083-42zm2181 3959c-688 0-1309-567-1315-573-12-12-12-36 0-48 13-12 37-18 49 0 12 12 1169 1069 2045 227 12-12 36-12 48 0 13 12 13 36 0 48-261 256-547 346-827 346zm1101-2024l-797-1426-268-484-426-764c-12-18-30-24-48-12-19 12-25 30-12 48l1472 2638-1345 460c-18 6-30 30-24 48 6 12 18 24 37 24h12l1381-472c12 0 18-12 24-24 0-18 0-30-6-36zm-1533 4227c-548 0-1248-96-1960-436-18-6-24-30-18-48s31-24 49-18c1107 532 2166 460 2696 364 18-6 36 12 42 30s-12 36-30 42c-195 36-463 66-779 66zm1479-9635c-712 263-1443 549-2191 854-1077 441-2093 889-3055 1343l-36 4423c-219-674-840-1182-1607-1230-109-6-213-6-316 6-37-113-67-226-98-340-6-36-18-66-24-101 0-6 0-6-6-12-12-66-30-126-43-191l-18-102-18-101c-18-108-37-215-49-323l-18-179c-6-36-6-71-6-107 0-30-6-60-6-84v-48c0-29 0-59-6-89-6-107-6-209 0-310v-96c0-60 6-119 6-173v-24c0-18 0-30 6-48 0-30 6-59 6-89 0-24 6-42 6-66v-12c67-579 298-1612 1095-2567 1163-1265 3225-1797 4862-1235 451 155 864 394 1242 692 103 60 188 131 274 209z"/><path d="M11175 7600c347 782-18 1707-815 2054-797 340-1740-18-2093-800l2908-1254zm2520 711c-633 232-1327 41-1753-430l-268-484 2952-1092c304 800-116 1707-931 2006z" fill="#d5e0ea"/><path d="M11029 7773c-12 0-30-6-36-24-67-167-61-352 18-519 73-149 207-263 359-310 292-84 615 77 742 364 7 18 0 42-18 47-18 6-42 0-48-17-110-257-402-400-652-323-133 42-249 137-316 275-73 143-79 310-18 460 6 17 0 41-18 47h-13z"/><path d="M10257 9725c-13 0-19-6-25-12-85-89-493-555-280-889 165-257 43-567-12-693-6-18 0-41 18-47 19-6 43 0 49 18 67 131 195 471 12 758-188 292 189 722 268 805 12 12 12 36 0 48s-24 12-30 12zm3298-1331c-13 0-25-6-31-12-127-161-395-567-188-853 206-287 36-669 0-741-6-18 0-42 18-47 18-6 43 0 49 17 36 78 225 496-6 812-177 245 73 621 188 770 12 18 12 36-6 48-6 6-18 6-24 6z" fill="#fff"/><path d="M8741 8979l-1770 842-55-54 1795-854c18-6 43 0 49 18 12 18 0 36-19 48zm1832-203c175 0 316-139 316-310 0-172-141-311-316-311s-316 139-316 311c0 171 141 310 316 310zm3402-1325c174 0 316-139 316-310 0-172-142-311-316-311-175 0-317 139-317 311 0 171 142 310 317 310z"/><path fill="#ff1ead" d="M7409 10525c-85-269-238-507-438-704l-55-54c-292-269-682-442-1114-472-109-6-213-6-316 6-858 90-1546 776-1607 1648-67 979 688 1821 1686 1886 523 36 1016-155 1369-483 317-299 523-705 554-1164 12-239-12-460-79-663z"/><path d="M6721 11832c-6 0-18 0-24-6-79-53-213-179-262-382-79-310 104-555 183-650l-1771-926c-18-11-24-29-12-47s30-24 48-12l1814 949c12 6 18 18 18 24 0 12 0 24-12 30-12 12-280 274-195 614 43 180 164 293 237 341 19 12 19 36 7 48-7 11-19 17-31 17z"/><path fill="#290060" d="M2845 16274l55-36c12-6 24-18 36-24 49-30 98-66 152-95 49-36 104-66 152-96l110-72c30-23 67-41 103-65l183-108c37-24 79-48 116-71 371-215 754-418 1144-609 30-12 61-30 85-42 55-24 103-48 158-72 341-155 1053-465 2045-764l274 1725c109 699 517 1332 1125 1702 615 370 1382 489 2057 274 712-227 1278-800 1515-1510 116-352 134-728 73-1098l-292-1845c1004-12 2081 66 3195 287 1036 199 1970 493 2822 846-1719 2684-4764 4468-8234 4468h0c-2684 0-5115-1068-6874-2795z"/><path d="M2936 16208c0 46-7 91-21 133l-78-75 99-64v6zm7047 1821c-469 0-955-132-1369-388-615-370-1029-1003-1144-1725l-274-1726c-6-18 12-35 30-41 19 0 37 11 43 29l274 1726c109 704 517 1313 1113 1677 621 376 1376 478 2027 269 700-221 1259-776 1491-1487 109-328 134-704 73-1080-6-18 12-36 30-42s37 12 43 30c60 388 36 770-79 1110-244 734-816 1301-1540 1534-237 78-475 114-718 114z" fill="#d5e0ea"/></svg>