<svg xmlns="http://www.w3.org/2000/svg" width="250" height="245" shape-rendering="geometricPrecision" image-rendering="optimizeQuality" fill-rule="evenodd" viewBox="0 0 21910 21494" xmlns:v="https://vecta.io/nano"><path fill="#b17bf4" d="M0 10747C0 4812 4905 0 10955 0h0c6051 0 10955 4812 10955 10747h0c0 5935-4904 10747-10955 10747h0C4905 21494 0 16682 0 10747h0z"/><g fill="#2d264f"><path d="M10654 3130c2375-604 2924-1618 3518-431s-286 1294 176 2157-440 1726-1275 1446c-836-281-2419-3172-2419-3172z"/><path d="M8543 7121c-748 561-22 1834-880 1511-550-195-1034 280-1166 1143-263 1510-813-1014-2419 431-1605 1446-1385-431-2705 1079 0 0 1474 863 3233 2869 1760 2007 7697-1445 10116-927 0 0 1254-583 726-1791-506-1230-1253-216-1033-1791 220-1574-726-431-946-1294s879-3452-1540-3301c-2441 130-3386 2071-3386 2071z"/></g><path fill="#788bf1" d="M9929 8588l-1056 5394c-352 1769 2419 2524 2749 755l1056-5394c351-1790-2398-2545-2749-755z"/><path fill="#2d264f" d="M10565 7682c-44 1316 132 2611 748 3733 198 345 462 625 770 841 329-820 396-1963 571-2956 286-1294-1187-2049-2089-1618z"/><path fill="#788bf1" d="M13908 7165c0 927-66 1941-88 2977-22 755-1539 863-2947 172-571-280-1121-668-1539-1186-418-539-352-1036-418-1834-286-3365-132-4466 2925-4120 1781 194 2067 1833 2067 3991z"/><path d="M9114 9214c880 1898 638-3020 440-4552-22-151 132-323 264-345 1188-237 2375-194 3585-173 176-712-1034-949-1804-1035-3057-345-3364 625-3079 3991 88 820 176 1596 594 2114zm2353-3624v712c0 129 220 151 220 21v-712c0-129-220-151-220-21zm1959 108v712c0 129 219 172 219 21v-712c0-129-219-151-219-21z" fill="#2d264f"/><path fill="#ef1b3a" d="M13271 5223c110 86 242-65 154-151-264-237-594-65-660 302-66 302 88 690 154 971l330 1488c22 130 220 87 198-64l-264-1187-132-604c-22-65-22-129-44-194-132-259-44-647 264-561z"/><path fill="#a9cdff" d="M12193 7229c-638-43-1077-237-1517-690-66 21-132 65-176 108-22 0-66 1833-66 2740-264-453-506-928-748-1360-66-129-330-172-264-43 396 712 836 1748 1430 2352 1407 669 2925 582 2947-173l88-2977c-550 43-1122 86-1694 43z"/><path fill="#788bf1" d="M9929 5676c-1694-496-2859 1726 0 2524V5676z"/><g fill="#ef1b3a"><path d="M9840 6970c-242-258-528-474-813-668-132-65-242 108-110 194 285 172 549 388 769 625 110 108 264-43 154-151z"/><path d="M9730 7402c-242-22-352-281-176-453 88-108-66-259-154-151-286 323-88 798 352 820 110 0 110-216-22-216z"/></g><path fill="#a9cdff" d="M10940 7100c-132-367-308-690-528-1014-198-259-440-539-748-626-132-43-198 173-66 216 308 86 572 453 748 690 176 238 286 518 396 799 22 108 242 64 198-65z"/><path fill="#ef1b3a" d="M11643 4921c-110 22-220 65-329 86-132 44-88 238 44 216 109-22 219-65 329-86 132-22 88-238-44-216z"/><path fill="#2d264f" d="M11468 3886c-22-65-132-65-198-22-22-65-154-108-198-22-440 712-1408-604-1979 1273-22 108-110 173 0 216 549 194 1077-22 1539-302 374-237 770-518 836-971 0-21 22-21 22-43 44-65 22-108-22-129z"/><path fill="#a9cdff" d="M1930 16840c404-2197 1184-3241 2764-3764 505-173 1099-281 1803-367 484-65 1012-86 1605-129 198 0 418-22 638-22l1715-43c638-22 1210-22 1738 0 330 22 615 22 923 65 4071 352 4782 2097 4802 6464-1893 1531-4319 2450-6963 2450h0c-3744 0-7049-1843-9025-4654z"/><path fill="#788bf1" d="M13094 12580l-1627 2955-2749-2977c528-21 1122-108 1737-129 638-22 1144 0 1694 21 308 22 659 108 945 130z"/><path d="M16986 17973c-22 733-505 1359-1209 1575-132 43-88 259 66 215 792-237 1341-949 1385-1768-22-151-242-151-242-22zm397 1381c0-130-220-130-220 0l14 238c71-48 141-97 211-146l-5-92z" fill="#fff9ef"/><path fill="#ff6b57" d="M6475 12709c-22-130-242-130-220 0l1039 8169 229 77-1048-8246z"/><path fill="#788bf1" d="M6080 18189v2184l220 104v-2288c0-130-220-130-220 0z"/></svg>