<svg xmlns="http://www.w3.org/2000/svg" width="250" height="250" shape-rendering="geometricPrecision" image-rendering="optimizeQuality" fill-rule="evenodd" viewBox="0 0 19953 19954" xmlns:v="https://vecta.io/nano"><path fill="#9fa9ff" d="M0 9787C0 4382 4467 0 9977 0h0c5510 0 9976 4382 9976 9787h0c0 5405-4466 9786-9976 9786h0C4467 19573 0 15192 0 9787h0z"/><path d="M11144 2870c751 0 4581 786 5768 7509 369 2625 780 3909 931 4230 21 0 38 0 50-4 21 107 0 115-50 4-902 45-6141 424-9987-4-3117-346-6515-3127-6515-3127 3088-2362 4354-4724 4824-6164 1347-2806 4593-2444 4979-2444z"/><path fill="#ff6b6b" d="M7335 11819c-2424-913-1929-4654-717-6085 2945 20 4686-1910 4635-1741-553 1839-403 3148-29 4074 0 0 679-1111 1392-148 399 728-453 1547-453 1547s-448 744-218 2082c218 2460 1976 3283 1968 3287-514 643-1337 2825-1936 4541-536 108-1089 172-1652 191-584-1436-1181-3301-867-4472l-768-3288c-209 66-860 197-1355 12z"/><path d="M12185 7997c-265-103-563 70-676 173 0 0 327-79 533-54 197 25 298 185 298 185 12-70-9-234-155-304zm-487 1670c-231 29-378-82-424-140 0 78 21 243 130 260 105 16 239-75 294-120zm-2727 144c380 0 688-302 688-675 0-372-308-674-688-674s-688 302-688 674c0 373 308 675 688 675zM6413 8005c-63 366-424 613-801 551 0 0 16-308 88-675 63-366 167-650 167-650 378 58 609 408 546 774zm2273 3802c722-243 2353-983 3226-1979l50-58c-17 21-33 41-50 58l-2894 3378-332-1399z" fill="#e34545"/><path d="M7439 8652c217 74 332 307 256 520s-313 325-530 251c-3-1-931-310-931-928 0-334 805-1540 807-1544 125-189 383-243 576-120 192 123 247 376 122 565-2 3-670 1012-670 1099 0 31 369 157 370 157zm3930 1212c126-157 358-185 518-62 161 123 189 350 64 508-203 254-626 669-1184 1047-398 270-869 526-1383 699-194 64-404-38-469-227-65-190 38-396 232-460 444-149 853-372 1201-608 490-333 852-685 1021-897z" fill-rule="nonzero"/><path d="M9140 7740c119-111 147-274 61-363-87-89-253-71-372 40-120 111-147 273-61 362s253 72 372-39zm-2334-763c90-135 77-299-28-366s-262-11-352 124c-89 135-77 299 28 366s263 11 352-124z"/><path fill="#7432ff" d="M9236 14202c-1380 41-2542 1432-3016 2246l-1005 1941c1415 755 3037 1184 4762 1184h0c248 0 493-9 737-26l-1478-5345zm9168 824c-2332-789-4144-574-4898-483l-1779 4880c2806-487 5206-2124 6677-4397z"/><path fill-rule="nonzero" d="M8989 14877c-60-217 71-442 292-501 222-59 451 69 511 286l1334 4777c60 217-71 442-292 501-222 59-451-69-511-287l-1334-4776zm3169 4675c-77 213-315 325-532 250s-331-309-254-522l1489-4107c76-213 314-325 532-250 217 75 331 309 254 522l-1489 4107z"/></svg>