<svg xmlns="http://www.w3.org/2000/svg" width="250" height="245" shape-rendering="geometricPrecision" image-rendering="optimizeQuality" fill-rule="evenodd" viewBox="0 0 16596 16280" xmlns:v="https://vecta.io/nano"><path fill="#f72626" d="M0 8140C0 3644 3715 0 8298 0h0c4582 0 8298 3644 8298 8140h0c0 4495-3716 8140-8298 8140h0C3715 16280 0 12635 0 8140h0z"/><path fill="#46ffde" d="M0 8140C0 3644 3715 0 8298 0c4582 0 8298 3644 8298 8140h0c0 4495-3716 8140-8298 8140h0C3715 16280 0 12635 0 8140h0z"/><path fill="#23355f" d="M15802 11617c-1671-2282-4458-3869-7530-3741-3065 127-5837 1517-7508 3680 1317 2789 4195 4724 7534 4724h0c3314 0 6174-1907 7504-4663z"/><path d="M6682 4941c-1447-863-1846-732-2066-130s0 948 1140 1510c1146 556 926-1380 926-1380zm3799 0c1448-863 1847-732 2066-130 220 602 0 948-1140 1510-1145 556-926-1380-926-1380z" fill="#97b1fe"/><path d="M5306 4886c-122-60-230 115-107 181 230 120 394 331 425 587 15 130 230 130 209 0-36-327-225-613-527-768zm6572 5c-266 160-425 451-394 757 10 131 225 136 210 0-21-235 81-456 286-576 123-71 15-251-102-181z" fill="#23355f"/><g fill="#97b1fe"><path d="M10957 7334c-1447 55-2905 50-4326 341 92 788 123 1575 61 2368 169 812 752 1485 1683 1585 966 100 2147-662 2152-1701l11-1745c97-65 184-141 266-221 25-216 81-421 153-627z"/><path d="M8773 9120h-291c-655 0-1253-236-1713-622-568-477-926-1179-926-1967V3888c0-743 317-1410 829-1882 470-436 1109-707 1810-707h291c721 0 1376 286 1857 748 485 471 787 1123 787 1841v2643c-5 1430-1186 2589-2644 2589z"/></g><g fill="#fe4e4e"><path d="M11294 3105l-51 1746c-25 582 5 1229-332 1730-281 422-665 562-1145 527-312-20-609-175-926-175-327 0-639 135-966 155-2169 136-1806-3150-1499-4530 15-60 36-115 67-155-5-60-5-121-5-181-389 477-629 1089-629 1756v2448c0 1510 1191 2729 2664 2729h296c803 0 1519-361 2005-933 409-482 660-1109 660-1796V3988c10-306-46-607-139-883z"/><path d="M5874 4620c-36-25 414-1460 598-1680 767-918 3324-773 3907-372 399 276 680 1721 1064 1876v-456c0-838-368-1585-946-2087-466-401-1064-642-1718-642h-297c-1473 0-2664 1224-2664 2729v597c15 10 36 20 56 35z"/></g><path d="M7106 4610c-265-35-485 251-404 497 46 125 251 70 205-56-36-100 41-250 164-235 112 15 168 155 122 245-66 116 118 221 184 106 123-216-10-522-271-557zm3299 0c-266-35-486 251-404 497 46 125 250 70 205-56-36-100 40-250 163-235 113 15 169 155 123 245-67 116 117 221 184 106 117-216-15-522-271-557zm-3099-898l-424 130c-128 41-77 241 56 201l424-130c128-40 72-241-56-201zm2756-55h-317c-138 0-138 206 0 206h317c138 5 138-206 0-206z" fill="#23355f"/><path fill="#fff" d="M9648 7254c-159 195-353 346-588 441-123 50-72 251 56 201 271-111 501-271 685-497 82-100-71-246-153-145z"/><path fill="#23355f" d="M8871 4460c-62-121-241-15-184 105 266 547 619 1460-159 1786-123 50-15 231 108 180 894-376 552-1429 235-2071z"/></svg>